<mxfile host="app.diagrams.net" agent="Mozilla/5.0 (Windows NT 10.0; Win64; x64) AppleWebKit/537.36 (KHTML, like Gecko) Chrome/136.0.0.0 Safari/537.36" version="27.0.3">
  <diagram name="Raft Leader 选举流程图" id="QdYmWMetS8p0CZsHuwBN">
    <mxGraphModel dx="796" dy="505" grid="1" gridSize="10" guides="1" tooltips="1" connect="1" arrows="1" fold="1" page="1" pageScale="1" pageWidth="850" pageHeight="1100" math="0" shadow="0">
      <root>
        <mxCell id="0" />
        <mxCell id="1" parent="0" />
        <mxCell id="NoFVK2l8c1VCzTuC-JKl-130" value="图 4-1: Raft Leader 选举流程图" style="text;html=1;strokeColor=none;fillColor=none;align=center;verticalAlign=middle;whiteSpace=wrap;rounded=0;fontSize=18;fontStyle=1" vertex="1" parent="1">
          <mxGeometry x="175" y="20" width="500" height="30" as="geometry" />
        </mxCell>
        <mxCell id="NoFVK2l8c1VCzTuC-JKl-131" value="" style="rounded=1;whiteSpace=wrap;html=1;dashed=1;strokeWidth=2;fillColor=#f5f5f5;fontColor=#333333;strokeColor=#666666;" vertex="1" parent="1">
          <mxGeometry x="100" y="70" width="650" height="130" as="geometry" />
        </mxCell>
        <mxCell id="NoFVK2l8c1VCzTuC-JKl-132" value="集群初始状态：所有节点都是Follower" style="text;html=1;strokeColor=none;fillColor=none;align=center;verticalAlign=middle;whiteSpace=wrap;rounded=0;fontSize=16;fontStyle=1" vertex="1" parent="1">
          <mxGeometry x="280" y="80" width="280" height="30" as="geometry" />
        </mxCell>
        <mxCell id="NoFVK2l8c1VCzTuC-JKl-133" value="Follower&#xa;(Term=1)" style="ellipse;whiteSpace=wrap;html=1;aspect=fixed;fillColor=#dae8fc;strokeColor=#6c8ebf;fontSize=14;" vertex="1" parent="1">
          <mxGeometry x="150" y="110" width="80" height="80" as="geometry" />
        </mxCell>
        <mxCell id="NoFVK2l8c1VCzTuC-JKl-134" value="Follower&#xa;(Term=1)" style="ellipse;whiteSpace=wrap;html=1;aspect=fixed;fillColor=#dae8fc;strokeColor=#6c8ebf;fontSize=14;" vertex="1" parent="1">
          <mxGeometry x="280" y="110" width="80" height="80" as="geometry" />
        </mxCell>
        <mxCell id="NoFVK2l8c1VCzTuC-JKl-135" value="Follower&#xa;(Term=1)" style="ellipse;whiteSpace=wrap;html=1;aspect=fixed;fillColor=#dae8fc;strokeColor=#6c8ebf;fontSize=14;" vertex="1" parent="1">
          <mxGeometry x="410" y="110" width="80" height="80" as="geometry" />
        </mxCell>
        <mxCell id="NoFVK2l8c1VCzTuC-JKl-136" value="Follower&#xa;(Term=1)" style="ellipse;whiteSpace=wrap;html=1;aspect=fixed;fillColor=#dae8fc;strokeColor=#6c8ebf;fontSize=14;" vertex="1" parent="1">
          <mxGeometry x="540" y="110" width="80" height="80" as="geometry" />
        </mxCell>
        <mxCell id="NoFVK2l8c1VCzTuC-JKl-137" value="Follower&#xa;(Term=1)" style="ellipse;whiteSpace=wrap;html=1;aspect=fixed;fillColor=#dae8fc;strokeColor=#6c8ebf;fontSize=14;" vertex="1" parent="1">
          <mxGeometry x="670" y="110" width="80" height="80" as="geometry" />
        </mxCell>
        <mxCell id="NoFVK2l8c1VCzTuC-JKl-138" value="" style="rounded=1;whiteSpace=wrap;html=1;dashed=1;strokeWidth=2;fillColor=#f5f5f5;fontColor=#333333;strokeColor=#666666;" vertex="1" parent="1">
          <mxGeometry x="100" y="230" width="650" height="150" as="geometry" />
        </mxCell>
        <mxCell id="NoFVK2l8c1VCzTuC-JKl-139" value="步骤 1：选举超时触发" style="text;html=1;strokeColor=none;fillColor=none;align=center;verticalAlign=middle;whiteSpace=wrap;rounded=0;fontSize=16;fontStyle=1" vertex="1" parent="1">
          <mxGeometry x="320" y="240" width="200" height="30" as="geometry" />
        </mxCell>
        <mxCell id="NoFVK2l8c1VCzTuC-JKl-140" value="Follower&#xa;(Term=1)" style="ellipse;whiteSpace=wrap;html=1;aspect=fixed;fillColor=#dae8fc;strokeColor=#6c8ebf;fontSize=14;" vertex="1" parent="1">
          <mxGeometry x="150" y="280" width="80" height="80" as="geometry" />
        </mxCell>
        <mxCell id="NoFVK2l8c1VCzTuC-JKl-141" value="Candidate&#xa;(Term=2)" style="ellipse;whiteSpace=wrap;html=1;aspect=fixed;fillColor=#ffe6cc;strokeColor=#d79b00;fontSize=14;fontStyle=1" vertex="1" parent="1">
          <mxGeometry x="280" y="280" width="80" height="80" as="geometry" />
        </mxCell>
        <mxCell id="NoFVK2l8c1VCzTuC-JKl-142" value="Follower&#xa;(Term=1)" style="ellipse;whiteSpace=wrap;html=1;aspect=fixed;fillColor=#dae8fc;strokeColor=#6c8ebf;fontSize=14;" vertex="1" parent="1">
          <mxGeometry x="410" y="280" width="80" height="80" as="geometry" />
        </mxCell>
        <mxCell id="NoFVK2l8c1VCzTuC-JKl-143" value="Follower&#xa;(Term=1)" style="ellipse;whiteSpace=wrap;html=1;aspect=fixed;fillColor=#dae8fc;strokeColor=#6c8ebf;fontSize=14;" vertex="1" parent="1">
          <mxGeometry x="540" y="280" width="80" height="80" as="geometry" />
        </mxCell>
        <mxCell id="NoFVK2l8c1VCzTuC-JKl-144" value="Follower&#xa;(Term=1)" style="ellipse;whiteSpace=wrap;html=1;aspect=fixed;fillColor=#dae8fc;strokeColor=#6c8ebf;fontSize=14;" vertex="1" parent="1">
          <mxGeometry x="670" y="280" width="80" height="80" as="geometry" />
        </mxCell>
        <mxCell id="NoFVK2l8c1VCzTuC-JKl-145" value="选举超时" style="endArrow=classic;html=1;rounded=0;fontSize=14;exitX=0.5;exitY=1;exitDx=0;exitDy=0;entryX=0.5;entryY=0;entryDx=0;entryDy=0;fillColor=#ffe6cc;strokeColor=#d79b00;strokeWidth=2;fontStyle=1" edge="1" parent="1" source="NoFVK2l8c1VCzTuC-JKl-134" target="NoFVK2l8c1VCzTuC-JKl-141">
          <mxGeometry x="-0.0678" y="10" width="50" height="50" relative="1" as="geometry">
            <mxPoint x="215" y="460" as="sourcePoint" />
            <mxPoint x="220" y="280" as="targetPoint" />
            <mxPoint as="offset" />
          </mxGeometry>
        </mxCell>
        <mxCell id="NoFVK2l8c1VCzTuC-JKl-146" value="1. 随机选举超时时间到达&#xa;2. 转变为Candidate&#xa;3. Term自增为2&#xa;4. 为自己投票" style="shape=note;whiteSpace=wrap;html=1;size=15;verticalAlign=top;align=left;spacingTop=-6;rounded=0;shadow=0;comic=0;labelBackgroundColor=none;strokeWidth=1;fontFamily=Verdana;fontSize=14;fillColor=#fff2cc;strokeColor=#d6b656;" vertex="1" parent="1">
          <mxGeometry x="790" y="280" width="190" height="80" as="geometry" />
        </mxCell>
        <mxCell id="NoFVK2l8c1VCzTuC-JKl-147" value="" style="rounded=1;whiteSpace=wrap;html=1;dashed=1;strokeWidth=2;fillColor=#f5f5f5;fontColor=#333333;strokeColor=#666666;" vertex="1" parent="1">
          <mxGeometry x="100" y="410" width="650" height="180" as="geometry" />
        </mxCell>
        <mxCell id="NoFVK2l8c1VCzTuC-JKl-148" value="步骤 2：Candidate请求投票" style="text;html=1;strokeColor=none;fillColor=none;align=center;verticalAlign=middle;whiteSpace=wrap;rounded=0;fontSize=16;fontStyle=1" vertex="1" parent="1">
          <mxGeometry x="320" y="420" width="200" height="30" as="geometry" />
        </mxCell>
        <mxCell id="NoFVK2l8c1VCzTuC-JKl-149" value="Follower&#xa;(Term=2)" style="ellipse;whiteSpace=wrap;html=1;aspect=fixed;fillColor=#dae8fc;strokeColor=#6c8ebf;fontSize=14;" vertex="1" parent="1">
          <mxGeometry x="110" y="460" width="80" height="80" as="geometry" />
        </mxCell>
        <mxCell id="NoFVK2l8c1VCzTuC-JKl-150" value="Candidate&#xa;(Term=2)" style="ellipse;whiteSpace=wrap;html=1;aspect=fixed;fillColor=#ffe6cc;strokeColor=#d79b00;fontSize=14;fontStyle=1" vertex="1" parent="1">
          <mxGeometry x="280" y="460" width="80" height="80" as="geometry" />
        </mxCell>
        <mxCell id="NoFVK2l8c1VCzTuC-JKl-151" value="Follower&#xa;(Term=2)" style="ellipse;whiteSpace=wrap;html=1;aspect=fixed;fillColor=#dae8fc;strokeColor=#6c8ebf;fontSize=14;" vertex="1" parent="1">
          <mxGeometry x="410" y="460" width="80" height="80" as="geometry" />
        </mxCell>
        <mxCell id="NoFVK2l8c1VCzTuC-JKl-152" value="Follower&#xa;(Term=2)" style="ellipse;whiteSpace=wrap;html=1;aspect=fixed;fillColor=#dae8fc;strokeColor=#6c8ebf;fontSize=14;" vertex="1" parent="1">
          <mxGeometry x="540" y="460" width="80" height="80" as="geometry" />
        </mxCell>
        <mxCell id="NoFVK2l8c1VCzTuC-JKl-153" value="Follower&#xa;(Term=2)" style="ellipse;whiteSpace=wrap;html=1;aspect=fixed;fillColor=#dae8fc;strokeColor=#6c8ebf;fontSize=14;" vertex="1" parent="1">
          <mxGeometry x="670" y="460" width="80" height="80" as="geometry" />
        </mxCell>
        <mxCell id="NoFVK2l8c1VCzTuC-JKl-154" value="RequestVote RPC" style="endArrow=classic;html=1;rounded=0;fontSize=14;exitX=0;exitY=0.5;exitDx=0;exitDy=0;entryX=1;entryY=0.5;entryDx=0;entryDy=0;strokeWidth=2;fillColor=#ffe6cc;strokeColor=#d79b00;" edge="1" parent="1" source="NoFVK2l8c1VCzTuC-JKl-150" target="NoFVK2l8c1VCzTuC-JKl-149">
          <mxGeometry x="-0.0678" y="10" width="50" height="50" relative="1" as="geometry">
            <mxPoint x="320" y="200" as="sourcePoint" />
            <mxPoint x="320" y="290" as="targetPoint" />
            <mxPoint as="offset" />
          </mxGeometry>
        </mxCell>
        <mxCell id="NoFVK2l8c1VCzTuC-JKl-155" value="拉票" style="endArrow=classic;html=1;rounded=0;fontSize=14;exitX=1;exitY=0.5;exitDx=0;exitDy=0;entryX=0;entryY=0.5;entryDx=0;entryDy=0;strokeWidth=2;fillColor=#ffe6cc;strokeColor=#d79b00;" edge="1" parent="1" source="NoFVK2l8c1VCzTuC-JKl-150" target="NoFVK2l8c1VCzTuC-JKl-151">
          <mxGeometry x="-0.0678" y="10" width="50" height="50" relative="1" as="geometry">
            <mxPoint x="290" y="510" as="sourcePoint" />
            <mxPoint x="240" y="510" as="targetPoint" />
            <mxPoint as="offset" />
          </mxGeometry>
        </mxCell>
        <mxCell id="NoFVK2l8c1VCzTuC-JKl-156" value="拉票" style="endArrow=classic;html=1;rounded=0;fontSize=14;exitX=1;exitY=0.25;exitDx=0;exitDy=0;entryX=0;entryY=0.25;entryDx=0;entryDy=0;strokeWidth=2;fillColor=#ffe6cc;strokeColor=#d79b00;" edge="1" parent="1" source="NoFVK2l8c1VCzTuC-JKl-151" target="NoFVK2l8c1VCzTuC-JKl-152">
          <mxGeometry x="-0.0678" y="10" width="50" height="50" relative="1" as="geometry">
            <mxPoint x="370" y="510" as="sourcePoint" />
            <mxPoint x="420" y="510" as="targetPoint" />
            <mxPoint as="offset" />
          </mxGeometry>
        </mxCell>
        <mxCell id="NoFVK2l8c1VCzTuC-JKl-157" value="拉票" style="endArrow=classic;html=1;rounded=0;fontSize=14;exitX=1;exitY=0.25;exitDx=0;exitDy=0;entryX=0;entryY=0.25;entryDx=0;entryDy=0;strokeWidth=2;fillColor=#ffe6cc;strokeColor=#d79b00;" edge="1" parent="1" source="NoFVK2l8c1VCzTuC-JKl-152" target="NoFVK2l8c1VCzTuC-JKl-153">
          <mxGeometry x="-0.0678" y="10" width="50" height="50" relative="1" as="geometry">
            <mxPoint x="500" y="490" as="sourcePoint" />
            <mxPoint x="550" y="490" as="targetPoint" />
            <mxPoint as="offset" />
          </mxGeometry>
        </mxCell>
        <mxCell id="NoFVK2l8c1VCzTuC-JKl-158" value="投票响应" style="endArrow=classic;html=1;rounded=0;fontSize=14;exitX=1;exitY=0.75;exitDx=0;exitDy=0;entryX=0;entryY=0.75;entryDx=0;entryDy=0;strokeWidth=2;dashed=1;fillColor=#ffe6cc;strokeColor=#d79b00;" edge="1" parent="1" source="NoFVK2l8c1VCzTuC-JKl-149" target="NoFVK2l8c1VCzTuC-JKl-150">
          <mxGeometry x="-0.0678" y="10" width="50" height="50" relative="1" as="geometry">
            <mxPoint x="290" y="510" as="sourcePoint" />
            <mxPoint x="240" y="510" as="targetPoint" />
            <mxPoint as="offset" />
          </mxGeometry>
        </mxCell>
        <mxCell id="NoFVK2l8c1VCzTuC-JKl-159" value="投票响应" style="endArrow=classic;html=1;rounded=0;fontSize=14;exitX=0;exitY=0.75;exitDx=0;exitDy=0;entryX=1;entryY=0.75;entryDx=0;entryDy=0;strokeWidth=2;dashed=1;fillColor=#ffe6cc;strokeColor=#d79b00;" edge="1" parent="1" source="NoFVK2l8c1VCzTuC-JKl-151" target="NoFVK2l8c1VCzTuC-JKl-150">
          <mxGeometry x="-0.0678" y="10" width="50" height="50" relative="1" as="geometry">
            <mxPoint x="240" y="530" as="sourcePoint" />
            <mxPoint x="290" y="530" as="targetPoint" />
            <mxPoint as="offset" />
          </mxGeometry>
        </mxCell>
        <mxCell id="NoFVK2l8c1VCzTuC-JKl-160" value="投票响应" style="endArrow=classic;html=1;rounded=0;fontSize=14;exitX=0;exitY=0.75;exitDx=0;exitDy=0;entryX=1;entryY=0.75;entryDx=0;entryDy=0;strokeWidth=2;dashed=1;fillColor=#ffe6cc;strokeColor=#d79b00;" edge="1" parent="1" source="NoFVK2l8c1VCzTuC-JKl-152" target="NoFVK2l8c1VCzTuC-JKl-151">
          <mxGeometry x="-0.0678" y="10" width="50" height="50" relative="1" as="geometry">
            <mxPoint x="420" y="530" as="sourcePoint" />
            <mxPoint x="370" y="530" as="targetPoint" />
            <mxPoint as="offset" />
          </mxGeometry>
        </mxCell>
        <mxCell id="NoFVK2l8c1VCzTuC-JKl-161" value="投票响应" style="endArrow=classic;html=1;rounded=0;fontSize=14;exitX=0;exitY=0.75;exitDx=0;exitDy=0;entryX=1;entryY=0.75;entryDx=0;entryDy=0;strokeWidth=2;dashed=1;fillColor=#ffe6cc;strokeColor=#d79b00;" edge="1" parent="1" source="NoFVK2l8c1VCzTuC-JKl-153" target="NoFVK2l8c1VCzTuC-JKl-152">
          <mxGeometry x="-0.0678" y="10" width="50" height="50" relative="1" as="geometry">
            <mxPoint x="550" y="530" as="sourcePoint" />
            <mxPoint x="500" y="530" as="targetPoint" />
            <mxPoint as="offset" />
          </mxGeometry>
        </mxCell>
        <mxCell id="NoFVK2l8c1VCzTuC-JKl-162" value="RequestVote RPC包含：&#xa;- 候选人的Term&#xa;- 候选人的ID&#xa;- 候选人的日志信息" style="shape=note;whiteSpace=wrap;html=1;size=15;verticalAlign=top;align=left;spacingTop=-6;rounded=0;shadow=0;comic=0;labelBackgroundColor=none;strokeWidth=1;fontFamily=Verdana;fontSize=14;fillColor=#fff2cc;strokeColor=#d6b656;" vertex="1" parent="1">
          <mxGeometry x="810" y="510" width="190" height="80" as="geometry" />
        </mxCell>
        <mxCell id="NoFVK2l8c1VCzTuC-JKl-163" value="" style="rounded=1;whiteSpace=wrap;html=1;dashed=1;strokeWidth=2;fillColor=#f5f5f5;fontColor=#333333;strokeColor=#666666;" vertex="1" parent="1">
          <mxGeometry x="100" y="620" width="650" height="220" as="geometry" />
        </mxCell>
        <mxCell id="NoFVK2l8c1VCzTuC-JKl-164" value="步骤 3：接收多数投票，成为Leader" style="text;html=1;strokeColor=none;fillColor=none;align=center;verticalAlign=middle;whiteSpace=wrap;rounded=0;fontSize=16;fontStyle=1" vertex="1" parent="1">
          <mxGeometry x="320" y="630" width="250" height="30" as="geometry" />
        </mxCell>
        <mxCell id="NoFVK2l8c1VCzTuC-JKl-165" value="Follower&#xa;(Term=2)" style="ellipse;whiteSpace=wrap;html=1;aspect=fixed;fillColor=#dae8fc;strokeColor=#6c8ebf;fontSize=14;" vertex="1" parent="1">
          <mxGeometry x="150" y="680" width="80" height="80" as="geometry" />
        </mxCell>
        <mxCell id="NoFVK2l8c1VCzTuC-JKl-166" value="Leader&#xa;(Term=2)" style="ellipse;whiteSpace=wrap;html=1;aspect=fixed;fillColor=#d5e8d4;strokeColor=#82b366;fontSize=14;fontStyle=1" vertex="1" parent="1">
          <mxGeometry x="280" y="680" width="80" height="80" as="geometry" />
        </mxCell>
        <mxCell id="NoFVK2l8c1VCzTuC-JKl-167" value="Follower&#xa;(Term=2)" style="ellipse;whiteSpace=wrap;html=1;aspect=fixed;fillColor=#dae8fc;strokeColor=#6c8ebf;fontSize=14;" vertex="1" parent="1">
          <mxGeometry x="410" y="680" width="80" height="80" as="geometry" />
        </mxCell>
        <mxCell id="NoFVK2l8c1VCzTuC-JKl-168" value="Follower&#xa;(Term=2)" style="ellipse;whiteSpace=wrap;html=1;aspect=fixed;fillColor=#dae8fc;strokeColor=#6c8ebf;fontSize=14;" vertex="1" parent="1">
          <mxGeometry x="540" y="680" width="80" height="80" as="geometry" />
        </mxCell>
        <mxCell id="NoFVK2l8c1VCzTuC-JKl-169" value="Follower&#xa;(Term=2)" style="ellipse;whiteSpace=wrap;html=1;aspect=fixed;fillColor=#dae8fc;strokeColor=#6c8ebf;fontSize=14;" vertex="1" parent="1">
          <mxGeometry x="670" y="680" width="80" height="80" as="geometry" />
        </mxCell>
        <mxCell id="NoFVK2l8c1VCzTuC-JKl-170" value="获得多数票&#xa;成为Leader" style="endArrow=classic;html=1;rounded=0;fontSize=14;exitX=0.5;exitY=1;exitDx=0;exitDy=0;entryX=0.5;entryY=0;entryDx=0;entryDy=0;fillColor=#d5e8d4;strokeColor=#82b366;strokeWidth=2;fontStyle=1" edge="1" parent="1" source="NoFVK2l8c1VCzTuC-JKl-150" target="NoFVK2l8c1VCzTuC-JKl-166">
          <mxGeometry x="-0.0678" y="10" width="50" height="50" relative="1" as="geometry">
            <mxPoint x="320" y="200" as="sourcePoint" />
            <mxPoint x="320" y="290" as="targetPoint" />
            <mxPoint as="offset" />
          </mxGeometry>
        </mxCell>
        <mxCell id="NoFVK2l8c1VCzTuC-JKl-171" value="AppendEntries RPC&#xa;(心跳)" style="endArrow=classic;html=1;rounded=0;fontSize=14;exitX=0;exitY=0.5;exitDx=0;exitDy=0;entryX=1;entryY=0.5;entryDx=0;entryDy=0;strokeWidth=2;fillColor=#d5e8d4;strokeColor=#82b366;" edge="1" parent="1" source="NoFVK2l8c1VCzTuC-JKl-166" target="NoFVK2l8c1VCzTuC-JKl-165">
          <mxGeometry x="-0.0678" y="10" width="50" height="50" relative="1" as="geometry">
            <mxPoint x="320" y="550" as="sourcePoint" />
            <mxPoint x="320" y="690" as="targetPoint" />
            <mxPoint as="offset" />
          </mxGeometry>
        </mxCell>
        <mxCell id="NoFVK2l8c1VCzTuC-JKl-172" value="AppendEntries RPC&#xa;(心跳)" style="endArrow=classic;html=1;rounded=0;fontSize=14;exitX=1;exitY=0.5;exitDx=0;exitDy=0;entryX=0;entryY=0.5;entryDx=0;entryDy=0;strokeWidth=2;fillColor=#d5e8d4;strokeColor=#82b366;" edge="1" parent="1" source="NoFVK2l8c1VCzTuC-JKl-166" target="NoFVK2l8c1VCzTuC-JKl-167">
          <mxGeometry x="-0.0678" y="10" width="50" height="50" relative="1" as="geometry">
            <mxPoint x="290" y="730" as="sourcePoint" />
            <mxPoint x="240" y="730" as="targetPoint" />
            <mxPoint as="offset" />
          </mxGeometry>
        </mxCell>
        <mxCell id="NoFVK2l8c1VCzTuC-JKl-173" value="AppendEntries RPC&#xa;(心跳)" style="endArrow=classic;html=1;rounded=0;fontSize=14;exitX=1;exitY=0.25;exitDx=0;exitDy=0;entryX=0;entryY=0.25;entryDx=0;entryDy=0;strokeWidth=2;fillColor=#d5e8d4;strokeColor=#82b366;" edge="1" parent="1" source="NoFVK2l8c1VCzTuC-JKl-167" target="NoFVK2l8c1VCzTuC-JKl-168">
          <mxGeometry x="-0.0678" y="10" width="50" height="50" relative="1" as="geometry">
            <mxPoint x="370" y="730" as="sourcePoint" />
            <mxPoint x="420" y="730" as="targetPoint" />
            <mxPoint as="offset" />
          </mxGeometry>
        </mxCell>
        <mxCell id="NoFVK2l8c1VCzTuC-JKl-174" value="AppendEntries RPC&#xa;(心跳)" style="endArrow=classic;html=1;rounded=0;fontSize=14;exitX=1;exitY=0.25;exitDx=0;exitDy=0;entryX=0;entryY=0.25;entryDx=0;entryDy=0;strokeWidth=2;fillColor=#d5e8d4;strokeColor=#82b366;" edge="1" parent="1" source="NoFVK2l8c1VCzTuC-JKl-168" target="NoFVK2l8c1VCzTuC-JKl-169">
          <mxGeometry x="-0.0678" y="10" width="50" height="50" relative="1" as="geometry">
            <mxPoint x="500" y="710" as="sourcePoint" />
            <mxPoint x="550" y="710" as="targetPoint" />
            <mxPoint as="offset" />
          </mxGeometry>
        </mxCell>
        <mxCell id="NoFVK2l8c1VCzTuC-JKl-175" value="成为Leader后：&#xa;1. 立即发送心跳消息(空的AppendEntries)&#xa;2. 抑制其他节点的选举超时&#xa;3. 开始处理客户端请求&#xa;4. 定期发送心跳维持领导地位" style="shape=note;whiteSpace=wrap;html=1;size=15;verticalAlign=top;align=left;spacingTop=-6;rounded=0;shadow=0;comic=0;labelBackgroundColor=none;strokeWidth=1;fontFamily=Verdana;fontSize=14;fillColor=#fff2cc;strokeColor=#d6b656;" vertex="1" parent="1">
          <mxGeometry x="290" y="970" width="320" height="80" as="geometry" />
        </mxCell>
        <mxCell id="NoFVK2l8c1VCzTuC-JKl-176" value="Raft选举规则：&#xa;1. 每个节点在一个任期(Term)内最多投票给一个候选人&#xa;2. 如果收到更高任期的消息，节点更新自己的任期并切换到Follower状态&#xa;3. 如果多个候选人同时竞选，可能无法获得多数票，此时会触发新一轮选举&#xa;4. 选举超时时间是随机的，以避免选票分散" style="shape=note;whiteSpace=wrap;html=1;size=15;verticalAlign=top;align=left;spacingTop=-6;rounded=0;shadow=0;comic=0;labelBackgroundColor=none;strokeWidth=1;fontFamily=Verdana;fontSize=14;fillColor=#fff2cc;strokeColor=#d6b656;" vertex="1" parent="1">
          <mxGeometry x="100" y="850" width="650" height="90" as="geometry" />
        </mxCell>
        <mxCell id="NoFVK2l8c1VCzTuC-JKl-177" value="" style="endArrow=classic;html=1;rounded=0;fontSize=14;strokeWidth=3;fillColor=#f5f5f5;strokeColor=#666666;dashed=1;" edge="1" parent="1">
          <mxGeometry width="50" height="50" relative="1" as="geometry">
            <mxPoint x="425" y="200" as="sourcePoint" />
            <mxPoint x="425" y="230" as="targetPoint" />
          </mxGeometry>
        </mxCell>
        <mxCell id="NoFVK2l8c1VCzTuC-JKl-178" value="" style="endArrow=classic;html=1;rounded=0;fontSize=14;strokeWidth=3;fillColor=#f5f5f5;strokeColor=#666666;dashed=1;" edge="1" parent="1">
          <mxGeometry width="50" height="50" relative="1" as="geometry">
            <mxPoint x="425" y="380" as="sourcePoint" />
            <mxPoint x="425" y="410" as="targetPoint" />
          </mxGeometry>
        </mxCell>
        <mxCell id="NoFVK2l8c1VCzTuC-JKl-179" value="" style="endArrow=classic;html=1;rounded=0;fontSize=14;strokeWidth=3;fillColor=#f5f5f5;strokeColor=#666666;dashed=1;" edge="1" parent="1">
          <mxGeometry width="50" height="50" relative="1" as="geometry">
            <mxPoint x="425" y="590" as="sourcePoint" />
            <mxPoint x="425" y="620" as="targetPoint" />
          </mxGeometry>
        </mxCell>
      </root>
    </mxGraphModel>
  </diagram>
</mxfile>
